<?xml version="1.0" encoding="UTF-8" standalone="no"?>
<!-- Generator: Adobe Illustrator 15.1.0, SVG Export Plug-In . SVG Version: 6.00 Build 0)  -->

<svg
   xmlns:dc="http://purl.org/dc/elements/1.1/"
   xmlns:cc="http://creativecommons.org/ns#"
   xmlns:rdf="http://www.w3.org/1999/02/22-rdf-syntax-ns#"
   xmlns:svg="http://www.w3.org/2000/svg"
   xmlns="http://www.w3.org/2000/svg"
   xmlns:sodipodi="http://sodipodi.sourceforge.net/DTD/sodipodi-0.dtd"
   xmlns:inkscape="http://www.inkscape.org/namespaces/inkscape"
   id="Layer_1"
   enable-background="new 262.5 211.5 183 231"
   xml:space="preserve"
   viewBox="262.5 211.5 183 231"
   version="1.1"
   y="0px"
   x="0px"
   inkscape:version="0.48.4 r9939"
   width="100%"
   height="100%"
   sodipodi:docname="1360339942.svg"><defs
     id="defs3839" /><sodipodi:namedview
     pagecolor="#ffffff"
     bordercolor="#666666"
     borderopacity="1"
     objecttolerance="10"
     gridtolerance="10"
     guidetolerance="10"
     inkscape:pageopacity="0"
     inkscape:pageshadow="2"
     inkscape:window-width="1610"
     inkscape:window-height="1028"
     id="namedview3837"
     showgrid="false"
     inkscape:zoom="2.8896485"
     inkscape:cx="130.63519"
     inkscape:cy="115.37323"
     inkscape:window-x="138"
     inkscape:window-y="0"
     inkscape:window-maximized="0"
     inkscape:current-layer="Layer_1" /><g
     id="g3827"><polygon
       points="435.31 245.94 385.16 218.66 379.45 225.8 369.61 220.44 363.36 228.11 353.45 222.72 347.14 230.4 337.21 225 330.9 232.68 320.97 227.28 314.65 234.97 304.71 229.57 298.39 237.25 288.46 231.85 280.09 241.79 330.23 269.07 336.75 261.33 346.71 266.76 353.03 259.07 362.96 264.47 369.28 256.78 379.22 262.19 385.53 254.5 395.46 259.9 401.76 252.23 411.68 257.62 417.9 250 427.76 255.36"
       fill="#603813"
       id="polygon3829" /><polygon
       points="322.84 435.34 272.69 408.06 273.01 235.38 323.16 262.66"
       fill="#A67C52"
       id="polygon3831" /><polygon
       points="419.76 247.72 427.76 255.36 435.31 245.94 434.98 419.58 322.84 435.34 323.16 262.66 330.23 269.07 338.61 259.13 346.71 266.76 354.86 256.85 362.96 264.47 371.11 254.56 379.22 262.19 387.36 252.28 395.46 259.9 403.59 250 411.68 257.62"
       fill="#C69C6D"
       id="polygon3833" /></g><metadata
     id="metadata3835"><rdf:RDF><cc:Work><dc:format>image/svg+xml</dc:format><dc:type
           rdf:resource="http://purl.org/dc/dcmitype/StillImage" /><cc:license
           rdf:resource="http://creativecommons.org/licenses/publicdomain/" /><dc:publisher><cc:Agent
             rdf:about="http://openclipart.org/"><dc:title>Openclipart</dc:title></cc:Agent></dc:publisher><dc:title></dc:title><dc:date>2013-02-08T11:12:22</dc:date><dc:description>A simple 3d rendering of a paper bag.</dc:description><dc:source>https://openclipart.org/detail/174916/simple-paper-bag-by-jgm104-174916</dc:source><dc:creator><cc:Agent><dc:title>jgm104</dc:title></cc:Agent></dc:creator><dc:subject><rdf:Bag><rdf:li>3d</rdf:li><rdf:li>bag</rdf:li><rdf:li>brown</rdf:li><rdf:li>groceries</rdf:li><rdf:li>grocery</rdf:li><rdf:li>paper</rdf:li><rdf:li>paper bag</rdf:li><rdf:li>shopping</rdf:li><rdf:li>simple</rdf:li><rdf:li>store</rdf:li></rdf:Bag></dc:subject></cc:Work><cc:License
         rdf:about="http://creativecommons.org/licenses/publicdomain/"><cc:permits
           rdf:resource="http://creativecommons.org/ns#Reproduction" /><cc:permits
           rdf:resource="http://creativecommons.org/ns#Distribution" /><cc:permits
           rdf:resource="http://creativecommons.org/ns#DerivativeWorks" /></cc:License></rdf:RDF></metadata><path
     sodipodi:type="arc"
     style="fill:#ffffff;stroke-width:0.1;stroke-miterlimit:4;stroke-dasharray:none"
     id="path3847"
     sodipodi:cx="125.28814"
     sodipodi:cy="142.90678"
     sodipodi:rx="39.152542"
     sodipodi:ry="26.67267"
     d="m 164.44068,142.90678 a 39.152542,26.67267 0 1 1 -78.305083,0 39.152542,26.67267 0 1 1 78.305083,0 z"
     transform="matrix(1.1325825,0,0,1.6681835,234.50667,115.43358)" /><path
     sodipodi:type="arc"
     style="fill:#ffffff;stroke-width:0.1;stroke-miterlimit:4;stroke-dasharray:none"
     id="path3849"
     sodipodi:cx="87.20784"
     sodipodi:cy="114.89591"
     sodipodi:rx="1.7303143"
     sodipodi:ry="0.86515713"
     d="m 88.938154,114.89591 a 1.7303143,0.86515713 0 1 1 -3.460628,0 1.7303143,0.86515713 0 1 1 3.460628,0 z"
     transform="translate(262.5,211.5)" /><path
     sodipodi:type="arc"
     style="fill:#ff0000;stroke-width:0.1;stroke-miterlimit:4;stroke-dasharray:none"
     id="path3851"
     sodipodi:cx="94.302124"
     sodipodi:cy="127.70024"
     sodipodi:rx="8.1324768"
     sodipodi:ry="5.0179114"
     d="m 102.4346,127.70024 a 8.1324768,5.0179114 0 1 1 -16.264953,0 8.1324768,5.0179114 0 1 1 16.264953,0 z"
     transform="matrix(0.34482759,0,0,0.34482759,318.95598,293.87808)" /><path
     sodipodi:type="arc"
     style="fill:#ff0000;stroke-width:0.1;stroke-miterlimit:4;stroke-dasharray:none"
     id="path3851-4"
     sodipodi:cx="94.302124"
     sodipodi:cy="127.70024"
     sodipodi:rx="8.1324768"
     sodipodi:ry="5.0179114"
     d="m 102.4346,127.70024 a 8.1324768,5.0179114 0 1 1 -16.264953,0 8.1324768,5.0179114 0 1 1 16.264953,0 z"
     transform="matrix(0.34482759,0,0,0.34482759,354.47881,319.90917)" /><path
     sodipodi:type="arc"
     style="fill:#ff0000;stroke-width:0.1;stroke-miterlimit:4;stroke-dasharray:none"
     id="path3851-9"
     sodipodi:cx="94.302124"
     sodipodi:cy="127.70024"
     sodipodi:rx="8.1324768"
     sodipodi:ry="5.0179114"
     d="m 102.4346,127.70024 a 8.1324768,5.0179114 0 1 1 -16.264953,0 8.1324768,5.0179114 0 1 1 16.264953,0 z"
     transform="matrix(0.34482759,0,0,0.34482759,362.47881,317.90917)" /><path
     sodipodi:type="arc"
     style="fill:#ff0000;stroke-width:0.1;stroke-miterlimit:4;stroke-dasharray:none"
     id="path3851-0"
     sodipodi:cx="94.302124"
     sodipodi:cy="127.70024"
     sodipodi:rx="8.1324768"
     sodipodi:ry="5.0179114"
     d="m 102.4346,127.70024 a 8.1324768,5.0179114 0 1 1 -16.264953,0 8.1324768,5.0179114 0 1 1 16.264953,0 z"
     transform="matrix(0.34482759,0,0,0.34482759,372.47881,317.90917)" /><path
     sodipodi:type="arc"
     style="fill:#ff0000;stroke-width:0.1;stroke-miterlimit:4;stroke-dasharray:none"
     id="path3851-8"
     sodipodi:cx="94.302124"
     sodipodi:cy="127.70024"
     sodipodi:rx="8.1324768"
     sodipodi:ry="5.0179114"
     d="m 102.4346,127.70024 a 8.1324768,5.0179114 0 1 1 -16.264953,0 8.1324768,5.0179114 0 1 1 16.264953,0 z"
     transform="matrix(0.34482759,0,0,0.34482759,322.47881,321.90917)" /><path
     sodipodi:type="arc"
     style="fill:#ff0000;stroke-width:0.1;stroke-miterlimit:4;stroke-dasharray:none"
     id="path3851-91"
     sodipodi:cx="94.302124"
     sodipodi:cy="127.70024"
     sodipodi:rx="8.1324768"
     sodipodi:ry="5.0179114"
     d="m 102.4346,127.70024 a 8.1324768,5.0179114 0 1 1 -16.264953,0 8.1324768,5.0179114 0 1 1 16.264953,0 z"
     transform="matrix(0.34482759,0,0,0.34482759,342.47881,343.90917)" /><path
     sodipodi:type="arc"
     style="fill:#ff0000;stroke-width:0.1;stroke-miterlimit:4;stroke-dasharray:none"
     id="path3851-5"
     sodipodi:cx="94.302124"
     sodipodi:cy="127.70024"
     sodipodi:rx="8.1324768"
     sodipodi:ry="5.0179114"
     d="m 102.4346,127.70024 a 8.1324768,5.0179114 0 1 1 -16.264953,0 8.1324768,5.0179114 0 1 1 16.264953,0 z"
     transform="matrix(0.34482759,0,0,0.34482759,312.47881,309.90917)" /><path
     sodipodi:type="arc"
     style="fill:#ff0000;stroke-width:0.1;stroke-miterlimit:4;stroke-dasharray:none"
     id="path3851-7"
     sodipodi:cx="94.302124"
     sodipodi:cy="127.70024"
     sodipodi:rx="8.1324768"
     sodipodi:ry="5.0179114"
     d="m 102.4346,127.70024 a 8.1324768,5.0179114 0 1 1 -16.264953,0 8.1324768,5.0179114 0 1 1 16.264953,0 z"
     transform="matrix(0.34482759,0,0,0.34482759,336.47881,315.90917)" /><path
     sodipodi:type="arc"
     style="fill:#ff0000;stroke-width:0.1;stroke-miterlimit:4;stroke-dasharray:none"
     id="path3851-42"
     sodipodi:cx="94.302124"
     sodipodi:cy="127.70024"
     sodipodi:rx="8.1324768"
     sodipodi:ry="5.0179114"
     d="m 102.4346,127.70024 a 8.1324768,5.0179114 0 1 1 -16.264953,0 8.1324768,5.0179114 0 1 1 16.264953,0 z"
     transform="matrix(0.34482759,0,0,0.34482759,328.47881,275.90917)" /><path
     sodipodi:type="arc"
     style="fill:#ff0000;stroke-width:0.1;stroke-miterlimit:4;stroke-dasharray:none"
     id="path3851-84"
     sodipodi:cx="94.302124"
     sodipodi:cy="127.70024"
     sodipodi:rx="8.1324768"
     sodipodi:ry="5.0179114"
     d="m 102.4346,127.70024 a 8.1324768,5.0179114 0 1 1 -16.264953,0 8.1324768,5.0179114 0 1 1 16.264953,0 z"
     transform="matrix(0.34482759,0,0,0.34482759,352.47881,281.90917)" /><path
     sodipodi:type="arc"
     style="fill:#ff0000;stroke-width:0.1;stroke-miterlimit:4;stroke-dasharray:none"
     id="path3851-82"
     sodipodi:cx="94.302124"
     sodipodi:cy="127.70024"
     sodipodi:rx="8.1324768"
     sodipodi:ry="5.0179114"
     d="m 102.4346,127.70024 a 8.1324768,5.0179114 0 1 1 -16.264953,0 8.1324768,5.0179114 0 1 1 16.264953,0 z"
     transform="matrix(0.34482759,0,0,0.34482759,346.47881,293.90917)" /><path
     sodipodi:type="arc"
     style="fill:#ff0000;stroke-width:0.1;stroke-miterlimit:4;stroke-dasharray:none"
     id="path3851-40"
     sodipodi:cx="94.302124"
     sodipodi:cy="127.70024"
     sodipodi:rx="8.1324768"
     sodipodi:ry="5.0179114"
     d="m 102.4346,127.70024 a 8.1324768,5.0179114 0 1 1 -16.264953,0 8.1324768,5.0179114 0 1 1 16.264953,0 z"
     transform="matrix(0.34482759,0,0,0.34482759,366.47881,297.90917)" /><path
     sodipodi:type="arc"
     style="fill:#ff0000;stroke-width:0.1;stroke-miterlimit:4;stroke-dasharray:none"
     id="path3851-95"
     sodipodi:cx="94.302124"
     sodipodi:cy="127.70024"
     sodipodi:rx="8.1324768"
     sodipodi:ry="5.0179114"
     d="m 102.4346,127.70024 a 8.1324768,5.0179114 0 1 1 -16.264953,0 8.1324768,5.0179114 0 1 1 16.264953,0 z"
     transform="matrix(0.34482759,0,0,0.34482759,360.47881,339.90917)" /><path
     sodipodi:type="arc"
     style="fill:#ff0000;stroke-width:0.1;stroke-miterlimit:4;stroke-dasharray:none"
     id="path3851-93"
     sodipodi:cx="94.302124"
     sodipodi:cy="127.70024"
     sodipodi:rx="8.1324768"
     sodipodi:ry="5.0179114"
     d="m 102.4346,127.70024 a 8.1324768,5.0179114 0 1 1 -16.264953,0 8.1324768,5.0179114 0 1 1 16.264953,0 z"
     transform="matrix(0.34482759,0,0,0.34482759,334.47881,325.90917)" /><path
     sodipodi:type="arc"
     style="fill:#ff0000;stroke-width:0.1;stroke-miterlimit:4;stroke-dasharray:none"
     id="path3851-3"
     sodipodi:cx="94.302124"
     sodipodi:cy="127.70024"
     sodipodi:rx="8.1324768"
     sodipodi:ry="5.0179114"
     d="m 102.4346,127.70024 a 8.1324768,5.0179114 0 1 1 -16.264953,0 8.1324768,5.0179114 0 1 1 16.264953,0 z"
     transform="matrix(0.34482759,0,0,0.34482759,372.47881,327.90917)" /><path
     sodipodi:type="arc"
     style="fill:#ff0000;stroke-width:0.1;stroke-miterlimit:4;stroke-dasharray:none"
     id="path3851-43"
     sodipodi:cx="94.302124"
     sodipodi:cy="127.70024"
     sodipodi:rx="8.1324768"
     sodipodi:ry="5.0179114"
     d="m 102.4346,127.70024 a 8.1324768,5.0179114 0 1 1 -16.264953,0 8.1324768,5.0179114 0 1 1 16.264953,0 z"
     transform="matrix(0.34482759,0,0,0.34482759,382.13275,305.32924)" /><path
     sodipodi:type="arc"
     style="fill:#ff0000;stroke-width:0.1;stroke-miterlimit:4;stroke-dasharray:none"
     id="path3851-45"
     sodipodi:cx="94.302124"
     sodipodi:cy="127.70024"
     sodipodi:rx="8.1324768"
     sodipodi:ry="5.0179114"
     d="m 102.4346,127.70024 a 8.1324768,5.0179114 0 1 1 -16.264953,0 8.1324768,5.0179114 0 1 1 16.264953,0 z"
     transform="matrix(0.34482759,0,0,0.34482759,316.13275,331.32924)" /><path
     sodipodi:type="arc"
     style="fill:#ff0000;stroke-width:0.1;stroke-miterlimit:4;stroke-dasharray:none"
     id="path3851-41"
     sodipodi:cx="94.302124"
     sodipodi:cy="127.70024"
     sodipodi:rx="8.1324768"
     sodipodi:ry="5.0179114"
     d="m 102.4346,127.70024 a 8.1324768,5.0179114 0 1 1 -16.264953,0 8.1324768,5.0179114 0 1 1 16.264953,0 z"
     transform="matrix(0.34482759,0,0,0.34482759,378.13275,291.32924)" /><path
     sodipodi:type="arc"
     style="fill:#ff0000;stroke-width:0.1;stroke-miterlimit:4;stroke-dasharray:none"
     id="path3851-57"
     sodipodi:cx="94.302124"
     sodipodi:cy="127.70024"
     sodipodi:rx="8.1324768"
     sodipodi:ry="5.0179114"
     d="m 102.4346,127.70024 a 8.1324768,5.0179114 0 1 1 -16.264953,0 8.1324768,5.0179114 0 1 1 16.264953,0 z"
     transform="matrix(0.34482759,0,0,0.34482759,358.13275,331.32924)" /><path
     sodipodi:type="arc"
     style="fill:#ff0000;stroke-width:0.1;stroke-miterlimit:4;stroke-dasharray:none"
     id="path3851-1"
     sodipodi:cx="94.302124"
     sodipodi:cy="127.70024"
     sodipodi:rx="8.1324768"
     sodipodi:ry="5.0179114"
     d="m 102.4346,127.70024 a 8.1324768,5.0179114 0 1 1 -16.264953,0 8.1324768,5.0179114 0 1 1 16.264953,0 z"
     transform="matrix(0.34482759,0,0,0.34482759,332.13275,335.32924)" /><path
     sodipodi:type="arc"
     style="fill:#ff0000;stroke-width:0.1;stroke-miterlimit:4;stroke-dasharray:none"
     id="path3851-14"
     sodipodi:cx="94.302124"
     sodipodi:cy="127.70024"
     sodipodi:rx="8.1324768"
     sodipodi:ry="5.0179114"
     d="m 102.4346,127.70024 a 8.1324768,5.0179114 0 1 1 -16.264953,0 8.1324768,5.0179114 0 1 1 16.264953,0 z"
     transform="matrix(0.34482759,0,0,0.34482759,348.13275,327.32924)" /><path
     sodipodi:type="arc"
     style="fill:#ff0000;stroke-width:0.1;stroke-miterlimit:4;stroke-dasharray:none"
     id="path3851-2"
     sodipodi:cx="94.302124"
     sodipodi:cy="127.70024"
     sodipodi:rx="8.1324768"
     sodipodi:ry="5.0179114"
     d="m 102.4346,127.70024 a 8.1324768,5.0179114 0 1 1 -16.264953,0 8.1324768,5.0179114 0 1 1 16.264953,0 z"
     transform="matrix(0.34482759,0,0,0.34482759,328.13275,301.32924)" /><path
     sodipodi:type="arc"
     style="fill:#ff0000;stroke-width:0.1;stroke-miterlimit:4;stroke-dasharray:none"
     id="path3851-424"
     sodipodi:cx="94.302124"
     sodipodi:cy="127.70024"
     sodipodi:rx="8.1324768"
     sodipodi:ry="5.0179114"
     d="m 102.4346,127.70024 a 8.1324768,5.0179114 0 1 1 -16.264953,0 8.1324768,5.0179114 0 1 1 16.264953,0 z"
     transform="matrix(0.34482759,0,0,-0.34482759,356.13275,391.39837)" /><path
     sodipodi:type="arc"
     style="fill:#ff0000;stroke-width:0.1;stroke-miterlimit:4;stroke-dasharray:none"
     id="path3851-59"
     sodipodi:cx="94.302124"
     sodipodi:cy="127.70024"
     sodipodi:rx="8.1324768"
     sodipodi:ry="5.0179114"
     d="m 102.4346,127.70024 a 8.1324768,5.0179114 0 1 1 -16.264953,0 8.1324768,5.0179114 0 1 1 16.264953,0 z"
     transform="matrix(0.34482759,0,0,0.34482759,336.13275,285.32924)" /><path
     sodipodi:type="arc"
     style="fill:#ff0000;stroke-width:0.1;stroke-miterlimit:4;stroke-dasharray:none"
     id="path3851-19"
     sodipodi:cx="94.302124"
     sodipodi:cy="127.70024"
     sodipodi:rx="8.1324768"
     sodipodi:ry="5.0179114"
     d="m 102.4346,127.70024 a 8.1324768,5.0179114 0 1 1 -16.264953,0 8.1324768,5.0179114 0 1 1 16.264953,0 z"
     transform="matrix(0.34482759,0,0,0.34482759,365.63866,279.76587)" /><path
     sodipodi:type="arc"
     style="fill:#ff0000;stroke-width:0.1;stroke-miterlimit:4;stroke-dasharray:none"
     id="path3851-31"
     sodipodi:cx="94.302124"
     sodipodi:cy="127.70024"
     sodipodi:rx="8.1324768"
     sodipodi:ry="5.0179114"
     d="m 102.4346,127.70024 a 8.1324768,5.0179114 0 1 1 -16.264953,0 8.1324768,5.0179114 0 1 1 16.264953,0 z"
     transform="matrix(0.34482759,0,0,0.34482759,322.72687,287.37926)" /><path
     sodipodi:type="arc"
     style="fill:#ff0000;stroke-width:0.1;stroke-miterlimit:4;stroke-dasharray:none"
     id="path3851-433"
     sodipodi:cx="94.302124"
     sodipodi:cy="127.70024"
     sodipodi:rx="8.1324768"
     sodipodi:ry="5.0179114"
     d="m 102.4346,127.70024 a 8.1324768,5.0179114 0 1 1 -16.264953,0 8.1324768,5.0179114 0 1 1 16.264953,0 z"
     transform="matrix(0.34482759,0,0,0.34482759,343.14458,276.65131)" /><path
     sodipodi:type="arc"
     style="fill:#ff0000;stroke-width:0.1;stroke-miterlimit:4;stroke-dasharray:none"
     id="path3851-04"
     sodipodi:cx="94.302124"
     sodipodi:cy="127.70024"
     sodipodi:rx="8.1324768"
     sodipodi:ry="5.0179114"
     d="m 102.4346,127.70024 a 8.1324768,5.0179114 0 1 1 -16.264953,0 8.1324768,5.0179114 0 1 1 16.264953,0 z"
     transform="matrix(0.34482759,0,0,0.34482759,338.64576,306.75878)" /><path
     sodipodi:type="arc"
     style="fill:#ff0000;stroke-width:0.1;stroke-miterlimit:4;stroke-dasharray:none"
     id="path3851-25"
     sodipodi:cx="94.302124"
     sodipodi:cy="127.70024"
     sodipodi:rx="8.1324768"
     sodipodi:ry="5.0179114"
     d="m 102.4346,127.70024 a 8.1324768,5.0179114 0 1 1 -16.264953,0 8.1324768,5.0179114 0 1 1 16.264953,0 z"
     transform="matrix(0.34482759,0,0,0.34482759,314.42137,303.29815)" /><path
     sodipodi:type="arc"
     style="fill:#ff0000;stroke-width:0.1;stroke-miterlimit:4;stroke-dasharray:none"
     id="path3851-37"
     sodipodi:cx="94.302124"
     sodipodi:cy="127.70024"
     sodipodi:rx="8.1324768"
     sodipodi:ry="5.0179114"
     d="m 102.4346,127.70024 a 8.1324768,5.0179114 0 1 1 -16.264953,0 8.1324768,5.0179114 0 1 1 16.264953,0 z"
     transform="matrix(0.34482759,0,0,0.34482759,360.10166,311.94972)" /><path
     sodipodi:type="arc"
     style="fill:#ff0000;stroke-width:0.1;stroke-miterlimit:4;stroke-dasharray:none"
     id="path3851-89"
     sodipodi:cx="94.302124"
     sodipodi:cy="127.70024"
     sodipodi:rx="8.1324768"
     sodipodi:ry="5.0179114"
     d="m 102.4346,127.70024 a 8.1324768,5.0179114 0 1 1 -16.264953,0 8.1324768,5.0179114 0 1 1 16.264953,0 z"
     transform="matrix(0.34482759,0,0,0.34482759,355.25677,275.26705)" /><path
     sodipodi:type="arc"
     style="fill:#ac9393;stroke-width:0.1;stroke-miterlimit:4;stroke-dasharray:none"
     id="path3851-34"
     sodipodi:cx="94.302124"
     sodipodi:cy="127.70024"
     sodipodi:rx="8.1324768"
     sodipodi:ry="5.0179114"
     d="m 102.4346,127.70024 a 8.1324768,5.0179114 0 1 1 -16.264953,0 8.1324768,5.0179114 0 1 1 16.264953,0 z"
     transform="matrix(0.34482759,0,0,0.34482759,323.419,310.2194)" /><path
     sodipodi:type="arc"
     style="fill:#ac9393;stroke-width:0.1;stroke-miterlimit:4;stroke-dasharray:none"
     id="path3851-34-6"
     sodipodi:cx="94.302124"
     sodipodi:cy="127.70024"
     sodipodi:rx="8.1324768"
     sodipodi:ry="5.0179114"
     d="m 102.4346,127.70024 a 8.1324768,5.0179114 0 1 1 -16.264953,0 8.1324768,5.0179114 0 1 1 16.264953,0 z"
     transform="matrix(0.34482759,0,0,0.34482759,341.0682,298.79933)" /><path
     sodipodi:type="arc"
     style="fill:#ac9393;stroke-width:0.1;stroke-miterlimit:4;stroke-dasharray:none"
     id="path3851-34-1"
     sodipodi:cx="94.302124"
     sodipodi:cy="127.70024"
     sodipodi:rx="8.1324768"
     sodipodi:ry="5.0179114"
     d="m 102.4346,127.70024 a 8.1324768,5.0179114 0 1 1 -16.264953,0 8.1324768,5.0179114 0 1 1 16.264953,0 z"
     transform="matrix(0.34482759,0,0,0.34482759,360.10165,292.5702)" /><path
     sodipodi:type="arc"
     style="fill:#ac9393;stroke-width:0.1;stroke-miterlimit:4;stroke-dasharray:none"
     id="path3851-34-7"
     sodipodi:cx="94.302124"
     sodipodi:cy="127.70024"
     sodipodi:rx="8.1324768"
     sodipodi:ry="5.0179114"
     d="m 102.4346,127.70024 a 8.1324768,5.0179114 0 1 1 -16.264953,0 8.1324768,5.0179114 0 1 1 16.264953,0 z"
     transform="matrix(0.34482759,0,0,0.34482759,315.45955,283.22651)" /><path
     sodipodi:type="arc"
     style="fill:#ac9393;stroke-width:0.1;stroke-miterlimit:4;stroke-dasharray:none"
     id="path3851-34-9"
     sodipodi:cx="94.302124"
     sodipodi:cy="127.70024"
     sodipodi:rx="8.1324768"
     sodipodi:ry="5.0179114"
     d="m 102.4346,127.70024 a 8.1324768,5.0179114 0 1 1 -16.264953,0 8.1324768,5.0179114 0 1 1 16.264953,0 z"
     transform="matrix(0.34482759,0,0,0.34482759,349.02764,310.91153)" /><path
     sodipodi:type="arc"
     style="fill:#ac9393;stroke-width:0.1;stroke-miterlimit:4;stroke-dasharray:none"
     id="path3851-34-3"
     sodipodi:cx="94.302124"
     sodipodi:cy="127.70024"
     sodipodi:rx="8.1324768"
     sodipodi:ry="5.0179114"
     d="m 102.4346,127.70024 a 8.1324768,5.0179114 0 1 1 -16.264953,0 8.1324768,5.0179114 0 1 1 16.264953,0 z"
     transform="matrix(0.34482759,0,0,0.34482759,372.90598,304.33634)" /><path
     sodipodi:type="arc"
     style="fill:#ac9393;stroke-width:0.1;stroke-miterlimit:4;stroke-dasharray:none"
     id="path3851-34-13"
     sodipodi:cx="94.302124"
     sodipodi:cy="127.70024"
     sodipodi:rx="8.1324768"
     sodipodi:ry="5.0179114"
     d="m 102.4346,127.70024 a 8.1324768,5.0179114 0 1 1 -16.264953,0 8.1324768,5.0179114 0 1 1 16.264953,0 z"
     transform="matrix(0.34482759,0,0,0.34482759,311.65285,320.60129)" /><path
     sodipodi:type="arc"
     style="fill:#ac9393;stroke-width:0.1;stroke-miterlimit:4;stroke-dasharray:none"
     id="path3851-34-75"
     sodipodi:cx="94.302124"
     sodipodi:cy="127.70024"
     sodipodi:rx="8.1324768"
     sodipodi:ry="5.0179114"
     d="m 102.4346,127.70024 a 8.1324768,5.0179114 0 1 1 -16.264953,0 8.1324768,5.0179114 0 1 1 16.264953,0 z"
     transform="matrix(0.34482759,0,0,0.34482759,344.87489,318.87097)" /><path
     sodipodi:type="arc"
     style="fill:#ac9393;stroke-width:0.1;stroke-miterlimit:4;stroke-dasharray:none"
     id="path3851-34-94"
     sodipodi:cx="94.302124"
     sodipodi:cy="127.70024"
     sodipodi:rx="8.1324768"
     sodipodi:ry="5.0179114"
     d="m 102.4346,127.70024 a 8.1324768,5.0179114 0 1 1 -16.264953,0 8.1324768,5.0179114 0 1 1 16.264953,0 z"
     transform="matrix(0.34482759,0,0,0.34482759,381.21149,323.02373)" /><path
     sodipodi:type="arc"
     style="fill:#ac9393;stroke-width:0.1;stroke-miterlimit:4;stroke-dasharray:none"
     id="path3851-34-4"
     sodipodi:cx="94.302124"
     sodipodi:cy="127.70024"
     sodipodi:rx="8.1324768"
     sodipodi:ry="5.0179114"
     d="m 102.4346,127.70024 a 8.1324768,5.0179114 0 1 1 -16.264953,0 8.1324768,5.0179114 0 1 1 16.264953,0 z"
     transform="matrix(0.34482759,0,0,0.34482759,324.45719,339.98081)" /><path
     sodipodi:type="arc"
     style="fill:#ac9393;stroke-width:0.1;stroke-miterlimit:4;stroke-dasharray:none"
     id="path3851-34-0"
     sodipodi:cx="94.302124"
     sodipodi:cy="127.70024"
     sodipodi:rx="8.1324768"
     sodipodi:ry="5.0179114"
     d="m 102.4346,127.70024 a 8.1324768,5.0179114 0 1 1 -16.264953,0 8.1324768,5.0179114 0 1 1 16.264953,0 z"
     transform="matrix(0.34482759,0,0,0.34482759,337.60757,273.88281)" /><path
     sodipodi:type="arc"
     style="fill:#ac9393;stroke-width:0.1;stroke-miterlimit:4;stroke-dasharray:none"
     id="path3851-34-68"
     sodipodi:cx="94.302124"
     sodipodi:cy="127.70024"
     sodipodi:rx="8.1324768"
     sodipodi:ry="5.0179114"
     d="m 102.4346,127.70024 a 8.1324768,5.0179114 0 1 1 -16.264953,0 8.1324768,5.0179114 0 1 1 16.264953,0 z"
     transform="matrix(0.34482759,0,0,0.34482759,366.67685,288.07138)" /></svg>