<?xml version="1.0" encoding="UTF-8" standalone="no"?>
<!-- Generator: Adobe Illustrator 15.1.0, SVG Export Plug-In . SVG Version: 6.00 Build 0)  -->

<svg
   xmlns:dc="http://purl.org/dc/elements/1.1/"
   xmlns:cc="http://creativecommons.org/ns#"
   xmlns:rdf="http://www.w3.org/1999/02/22-rdf-syntax-ns#"
   xmlns:svg="http://www.w3.org/2000/svg"
   xmlns="http://www.w3.org/2000/svg"
   xmlns:sodipodi="http://sodipodi.sourceforge.net/DTD/sodipodi-0.dtd"
   xmlns:inkscape="http://www.inkscape.org/namespaces/inkscape"
   id="Layer_1"
   enable-background="new 262.5 211.5 183 231"
   xml:space="preserve"
   viewBox="262.5 211.5 183 231"
   version="1.1"
   y="0px"
   x="0px"
   inkscape:version="0.48.4 r9939"
   width="100%"
   height="100%"
   sodipodi:docname="1360339942.svg"><defs
     id="defs4307"><radialGradient
       inkscape:collect="always"
       r="23.731"
       gradientTransform="matrix(1.7387,-0.019115,0.029099,2.6468,-1480.2,-1360.9)"
       cx="1073.3"
       cy="727.32"
       gradientUnits="userSpaceOnUse"
       id="radialGradient3924"><stop
         offset="0"
         style="stop-color:#00ff00"
         id="stop3908" /><stop
         offset=".41525"
         style="stop-color:#008000"
         id="stop3910" /><stop
         offset="1"
         style="stop-color:#000000"
         id="stop3912" /></radialGradient><filter
       inkscape:collect="always"
       color-interpolation-filters="sRGB"
       id="filter8323"><feGaussianBlur
         inkscape:collect="always"
         stdDeviation="0.80336133"
         id="feGaussianBlur8325" /></filter></defs><sodipodi:namedview
     pagecolor="#ffffff"
     bordercolor="#666666"
     borderopacity="1"
     objecttolerance="10"
     gridtolerance="10"
     guidetolerance="10"
     inkscape:pageopacity="0"
     inkscape:pageshadow="2"
     inkscape:window-width="852"
     inkscape:window-height="847"
     id="namedview4305"
     showgrid="false"
     inkscape:zoom="2.89"
     inkscape:cx="91.5"
     inkscape:cy="115.5"
     inkscape:window-x="890"
     inkscape:window-y="101"
     inkscape:window-maximized="0"
     inkscape:current-layer="Layer_1" /><g
     id="g4295"
     transform="matrix(0.75322005,0,0,0.75322005,67.294425,107.43318)"><polygon
       points="385.16,218.66 379.45,225.8 369.61,220.44 363.36,228.11 353.45,222.72 347.14,230.4 337.21,225 330.9,232.68 320.97,227.28 314.65,234.97 304.71,229.57 298.39,237.25 288.46,231.85 280.09,241.79 330.23,269.07 336.75,261.33 346.71,266.76 353.03,259.07 362.96,264.47 369.28,256.78 379.22,262.19 385.53,254.5 395.46,259.9 401.76,252.23 411.68,257.62 417.9,250 427.76,255.36 435.31,245.94 "
       id="polygon4297"
       style="fill:#603813" /><polygon
       points="272.69,408.06 273.01,235.38 323.16,262.66 322.84,435.34 "
       id="polygon4299"
       style="fill:#a67c52" /><polygon
       points="427.76,255.36 435.31,245.94 434.98,419.58 322.84,435.34 323.16,262.66 330.23,269.07 338.61,259.13 346.71,266.76 354.86,256.85 362.96,264.47 371.11,254.56 379.22,262.19 387.36,252.28 395.46,259.9 403.59,250 411.68,257.62 419.76,247.72 "
       id="polygon4301"
       style="fill:#c69c6d" /></g><metadata
     id="metadata4303"><rdf:RDF><cc:Work><dc:format>image/svg+xml</dc:format><dc:type
           rdf:resource="http://purl.org/dc/dcmitype/StillImage" /><cc:license
           rdf:resource="http://creativecommons.org/licenses/publicdomain/" /><dc:publisher><cc:Agent
             rdf:about="http://openclipart.org/"><dc:title>Openclipart</dc:title></cc:Agent></dc:publisher><dc:title></dc:title><dc:date>2013-02-08T11:12:22</dc:date><dc:description>A simple 3d rendering of a paper bag.</dc:description><dc:source>https://openclipart.org/detail/174916/simple-paper-bag-by-jgm104-174916</dc:source><dc:creator><cc:Agent><dc:title>jgm104</dc:title></cc:Agent></dc:creator><dc:subject><rdf:Bag><rdf:li>3d</rdf:li><rdf:li>bag</rdf:li><rdf:li>brown</rdf:li><rdf:li>groceries</rdf:li><rdf:li>grocery</rdf:li><rdf:li>paper</rdf:li><rdf:li>paper bag</rdf:li><rdf:li>shopping</rdf:li><rdf:li>simple</rdf:li><rdf:li>store</rdf:li></rdf:Bag></dc:subject></cc:Work><cc:License
         rdf:about="http://creativecommons.org/licenses/publicdomain/"><cc:permits
           rdf:resource="http://creativecommons.org/ns#Reproduction" /><cc:permits
           rdf:resource="http://creativecommons.org/ns#Distribution" /><cc:permits
           rdf:resource="http://creativecommons.org/ns#DerivativeWorks" /></cc:License></rdf:RDF></metadata><g
     transform="translate(-77.108625,-282.45247)"
     inkscape:label="Layer 1"
     id="layer1"><path
       d="m 395.52,497.68 c 5.6343,5.6355 4.7557,15.408 3.6445,20.863 -1.5674,7.6966 -13.597,13.636 -14.178,17.04 -2.9651,4.951 0.5891,13.293 7.4785,8.3031 2.2077,-3.1336 8.1814,-5.0204 4.1219,1.4451 -4.107,6.0802 -8.1662,12.138 -9.4864,16.917 -1.7193,6.2232 2.4228,7.6246 6.5975,6.9911 -2.5359,10.5 1.0891,12.331 6.7626,11.28 2.5041,10.501 10.749,5.0932 15.248,-1.8752 -3.6616,5.9966 3.4893,9.8704 5.842,4.4716 0,0 15.755,-34.517 5.1246,-45.442 -2.6114,-2.684 -6.1797,-11.016 -6.1797,-11.016 -4.0091,-7.1468 0.3649,-16.696 -0.7469,-26.116 z"
       inkscape:connector-curvature="0"
       style="opacity:0.62963011;fill:#000000;filter:url(#filter8323)"
       sodipodi:nodetypes="cscccsccccsscc"
       id="path9291" /><path
       inkscape:connector-curvature="0"
       style="fill:url(#radialGradient3924)"
       sodipodi:nodetypes="cscccsccccsscc"
       d="m 395.03,497.19 c 5.6343,5.6355 4.7482,12.417 3.637,17.872 -1.5674,7.6966 -13.597,13.636 -14.178,17.04 -2.9651,4.951 0.5891,13.293 7.4785,8.3031 2.2077,-3.1336 8.1814,-5.0204 4.1219,1.4451 -4.107,6.0802 -8.1662,12.138 -9.4864,16.917 -1.7193,6.2232 2.4228,7.6246 6.5975,6.9911 -2.5359,10.5 1.0891,12.331 6.7626,11.28 2.5041,10.501 10.749,5.0932 15.248,-1.8752 -3.6616,5.9966 3.4893,9.8704 5.842,4.4716 0,0 15.755,-34.517 5.1246,-45.442 -2.6114,-2.684 -6.1797,-11.016 -6.1797,-11.016 -4.0091,-7.1468 0.3649,-16.696 -0.7469,-26.116 z"
       id="path9373" /><path
       inkscape:connector-curvature="0"
       style="opacity:0.3786;fill:#005600"
       sodipodi:nodetypes="csscscccccccssc"
       d="m 413.25,525.34 -0.216,-19.988 c -0.05,-4.6252 2.2817,-3.2172 2.5232,0.9166 1.1847,20.276 0.6371,20.06 10.422,28.266 -4.3745,-5.9077 -7.3988,-11.874 -7.6721,-18.304 -0.213,-5.0086 2.2522,-10.358 1.2441,-16.911 l -23.772,-1.1588 c 7.9885,8.2186 1.8005,18.895 1.5307,27.816 l 3.5699,-6.0117 0.036,7.5316 c 0.068,-2.5076 -0.4651,-4.6555 1.3429,-8.2066 l 2.6011,1.7428 c -2.5455,-5.1331 -0.8431,-6.1839 0.1228,-15.37 0.8405,-7.9894 5.4362,-3.4536 5.9462,-0.5282 0.46,2.6381 1.5318,13.27 2.3208,20.206 z"
       id="path9375" /><path
       inkscape:connector-curvature="0"
       style="opacity:0.47325003;fill:#005600"
       sodipodi:nodetypes="cscssc"
       d="m 408.21,536.11 c -9.6501,29.541 -16.329,36.216 -12.331,38.442 4.1766,2.326 12.486,-13.597 18.225,-33.739 -4.4271,27.734 -12.394,38.407 -19.508,35.542 -2.1234,-0.8549 -3.617,-5.2288 -0.01,-10.743 3.0587,-4.6709 6.556,-13.351 13.62,-29.502 z"
       id="path9401" /><path
       inkscape:connector-curvature="0"
       style="opacity:0.6214;fill:#005600"
       sodipodi:nodetypes="cscccc"
       d="m 402.35,573.63 c -1.2274,9.2716 5.7146,8.36 10.524,0.8325 4.1107,-6.4344 6.9022,-17.647 7.0291,-29.612 -0.936,10.64 0.1442,22.062 -5.0249,31.062 -9.9801,10.895 -13.119,6.9705 -15.326,1.0273 z"
       id="path9403" /><path
       inkscape:connector-curvature="0"
       style="opacity:0.34568003;fill:#00cf00"
       sodipodi:nodetypes="cscssc"
       d="m 390.2,540.95 c -1.5091,-1.6247 17.244,-15.604 8.5198,-0.097 -10.483,18.634 -12.481,26.26 -3.9173,25.122 -3.7773,0.844 -8.8795,1.9044 -8.6464,-4.9889 0.279,-8.2551 14.995,-22.095 11.342,-23.842 -1.9901,-0.9513 -7.2976,3.8053 -7.2976,3.8053 z"
       id="path9405" /><path
       inkscape:connector-curvature="0"
       style="opacity:0.33745003;fill:#00cf00"
       sodipodi:nodetypes="cccssc"
       d="m 398.73,515.49 c 0.031,0.026 -2.5777,8.4031 -7.727,12.341 -6.2909,4.9332 -8.2154,15.326 1.0131,11.346 0,0 -4.6566,6.8957 -8.8207,-1.734 -1.4656,-3.0373 2.5307,-8.7133 5.9388,-10.62 6.5712,-3.6757 9.5958,-11.333 9.5958,-11.333 z"
       id="path9407" /><path
       inkscape:connector-curvature="0"
       style="opacity:0.59258997;fill:#005600"
       sodipodi:nodetypes="cscsc"
       d="m 419.79,558.26 c -3.1301,16.221 -5.0126,21.115 -2.8353,21.473 6.3623,1.0459 16.1,-34.974 8.0005,-46.129 11.856,6.743 0.4773,49.886 -8.0976,48.706 -6.0923,-0.8389 -2.3591,-9.1966 2.9324,-24.049 z"
       id="path9409" /></g><path
     sodipodi:type="arc"
     style="fill:#ff0000;stroke-width:0.1;stroke-miterlimit:4;stroke-dasharray:none"
     id="path3851-95"
     sodipodi:cx="94.302124"
     sodipodi:cy="127.70024"
     sodipodi:rx="8.1324768"
     sodipodi:ry="5.0179114"
     d="m 102.4346,127.70024 a 8.1324768,5.0179114 0 1 1 -16.264953,0 8.1324768,5.0179114 0 1 1 16.264953,0 z"
     transform="matrix(0.34482759,0,0,0.34482759,394.68791,355.90488)" /><path
     sodipodi:type="arc"
     style="fill:#ff0000;stroke-width:0.1;stroke-miterlimit:4;stroke-dasharray:none"
     id="path3851-95-3"
     sodipodi:cx="94.302124"
     sodipodi:cy="127.70024"
     sodipodi:rx="8.1324768"
     sodipodi:ry="5.0179114"
     d="m 102.4346,127.70024 a 8.1324768,5.0179114 0 1 1 -16.264953,0 8.1324768,5.0179114 0 1 1 16.264953,0 z"
     transform="matrix(0.34482759,0,0,0.34482759,395.37995,334.45159)" /><path
     sodipodi:type="arc"
     style="fill:#ff0000;stroke-width:0.1;stroke-miterlimit:4;stroke-dasharray:none"
     id="path3851-95-2"
     sodipodi:cx="94.302124"
     sodipodi:cy="127.70024"
     sodipodi:rx="8.1324768"
     sodipodi:ry="5.0179114"
     d="m 102.4346,127.70024 a 8.1324768,5.0179114 0 1 1 -16.264953,0 8.1324768,5.0179114 0 1 1 16.264953,0 z"
     transform="matrix(0.34482759,0,0,0.34482759,386.72943,344.4862)" /><path
     sodipodi:type="arc"
     style="fill:#ff0000;stroke-width:0.1;stroke-miterlimit:4;stroke-dasharray:none"
     id="path3851-95-1"
     sodipodi:cx="94.302124"
     sodipodi:cy="127.70024"
     sodipodi:rx="8.1324768"
     sodipodi:ry="5.0179114"
     d="m 102.4346,127.70024 a 8.1324768,5.0179114 0 1 1 -16.264953,0 8.1324768,5.0179114 0 1 1 16.264953,0 z"
     transform="matrix(0.34482759,0,0,0.34482759,385.69137,373.55194)" /><path
     sodipodi:type="arc"
     style="fill:#ac9393;stroke-width:0.1;stroke-miterlimit:4;stroke-dasharray:none"
     id="path3851-34-94"
     sodipodi:cx="94.302124"
     sodipodi:cy="127.70024"
     sodipodi:rx="8.1324768"
     sodipodi:ry="5.0179114"
     d="m 102.4346,127.70024 a 8.1324768,5.0179114 0 1 1 -16.264953,0 8.1324768,5.0179114 0 1 1 16.264953,0 z"
     transform="matrix(0.34482759,0,0,0.34482759,380.50106,353.48274)" /><path
     sodipodi:type="arc"
     style="fill:#ac9393;stroke-width:0.1;stroke-miterlimit:4;stroke-dasharray:none"
     id="path3851-34-94-6"
     sodipodi:cx="94.302124"
     sodipodi:cy="127.70024"
     sodipodi:rx="8.1324768"
     sodipodi:ry="5.0179114"
     d="m 102.4346,127.70024 a 8.1324768,5.0179114 0 1 1 -16.264953,0 8.1324768,5.0179114 0 1 1 16.264953,0 z"
     transform="matrix(0.34482759,0,0,0.34482759,381.88514,361.78723)" /><path
     sodipodi:type="arc"
     style="fill:#ac9393;stroke-width:0.1;stroke-miterlimit:4;stroke-dasharray:none"
     id="path3851-34-94-2"
     sodipodi:cx="94.302124"
     sodipodi:cy="127.70024"
     sodipodi:rx="8.1324768"
     sodipodi:ry="5.0179114"
     d="m 102.4346,127.70024 a 8.1324768,5.0179114 0 1 1 -16.264953,0 8.1324768,5.0179114 0 1 1 16.264953,0 z"
     transform="matrix(0.34482759,0,0,0.34482759,398.84016,370.09173)" /><path
     sodipodi:type="arc"
     style="fill:#ac9393;stroke-width:0.1;stroke-miterlimit:4;stroke-dasharray:none"
     id="path3851-34-94-7"
     sodipodi:cx="94.302124"
     sodipodi:cy="127.70024"
     sodipodi:rx="8.1324768"
     sodipodi:ry="5.0179114"
     d="m 102.4346,127.70024 a 8.1324768,5.0179114 0 1 1 -16.264953,0 8.1324768,5.0179114 0 1 1 16.264953,0 z"
     transform="matrix(0.34482759,0,0,0.34482759,395.18445,381.58135)" /><path
     sodipodi:type="arc"
     style="fill:#ac9393;stroke-width:0.1;stroke-miterlimit:4;stroke-dasharray:none"
     id="path3851-34-94-1"
     sodipodi:cx="94.302124"
     sodipodi:cy="127.70024"
     sodipodi:rx="8.1324768"
     sodipodi:ry="5.0179114"
     d="m 102.4346,127.70024 a 8.1324768,5.0179114 0 1 1 -16.264953,0 8.1324768,5.0179114 0 1 1 16.264953,0 z"
     transform="matrix(0.34482759,0,0,0.34482759,382.9232,384.97062)" /><path
     sodipodi:type="arc"
     style="fill:#ac9393;stroke-width:0.1;stroke-miterlimit:4;stroke-dasharray:none"
     id="path3851-34-94-9"
     sodipodi:cx="94.302124"
     sodipodi:cy="127.70024"
     sodipodi:rx="8.1324768"
     sodipodi:ry="5.0179114"
     d="m 102.4346,127.70024 a 8.1324768,5.0179114 0 1 1 -16.264953,0 8.1324768,5.0179114 0 1 1 16.264953,0 z"
     transform="matrix(0.34482759,0,0,0.34482759,403.33842,362.13326)" /><path
     sodipodi:type="arc"
     style="fill:#ac9393;stroke-width:0.1;stroke-miterlimit:4;stroke-dasharray:none"
     id="path3851-34-94-0"
     sodipodi:cx="94.302124"
     sodipodi:cy="127.70024"
     sodipodi:rx="8.1324768"
     sodipodi:ry="5.0179114"
     d="m 102.4346,127.70024 a 8.1324768,5.0179114 0 1 1 -16.264953,0 8.1324768,5.0179114 0 1 1 16.264953,0 z"
     transform="matrix(0.34482759,0,0,0.34482759,374.96473,367.66958)" /><path
     sodipodi:type="arc"
     style="fill:#ac9393;stroke-width:0.1;stroke-miterlimit:4;stroke-dasharray:none"
     id="path3851-34-94-09"
     sodipodi:cx="94.302124"
     sodipodi:cy="127.70024"
     sodipodi:rx="8.1324768"
     sodipodi:ry="5.0179114"
     d="m 102.4346,127.70024 a 8.1324768,5.0179114 0 1 1 -16.264953,0 8.1324768,5.0179114 0 1 1 16.264953,0 z"
     transform="matrix(0.34482759,0,0,0.34482759,367.35227,384.6246)" /></svg>